ffmpeg started on 2025-06-07 at 18:28:18
Report written to "D:\Convert\FFMetrics\reports\psnr_report-6.txt"
Log level: 32
Command line:
ffmpeg -hide_banner -nostdin -i "G:\\\xc0\xed\xe8\xec\xe5\\\xce\xed\xe3\xee\xe8\xed\xe3\xe8\\!_36_\xce\xf1\xe5\xed\xfc_2024\\DreamCast\\\xdf \xf1\xf2\xe0\xed\xf3 \xe7\xeb\xee\xe4\xe5\xe9\xea\xee\xe9, \xea\xee\xf2\xee\xf0\xe0\xff \xe2\xee\xe9\xe4\xb8\xf2 \xe2 \xe8\xf1\xf2\xee\xf0\xe8\xfe\\[DC] Rekishi ni Nokoru Akujo ni Naruzo - 11_Telegram_HEVC.mkv" -i "G:\\\xc0\xed\xe8\xec\xe5\\\xce\xed\xe3\xee\xe8\xed\xe3\xe8\\!_36_\xce\xf1\xe5\xed\xfc_2024\\DreamCast\\\xdf \xf1\xf2\xe0\xed\xf3 \xe7\xeb\xee\xe4\xe5\xe9\xea\xee\xe9, \xea\xee\xf2\xee\xf0\xe0\xff \xe2\xee\xe9\xe4\xb8\xf2 \xe2 \xe8\xf1\xf2\xee\xf0\xe8\xfe\\[DC] Rekishi ni Nokoru Akujo ni Naruzo - 11_Telegram.mp4" -lavfi "[0:v]settb=AVTB,setpts=PTS-STARTPTS,format=pix_fmts=yuv420p10,fps=24000/1001,scale=1920:1080:flags=bicubic[main];[1:v]settb=AVTB,setpts=PTS-STARTPTS,format=pix_fmts=yuv420p,fps=24000/1001,scale=1920:1080:flags=bicubic[ref];[main][ref]psnr=eof_action=endall:stats_file='D\\:/Convert/FFMetrics/logs/psnr_logfile-6.txt'" -f null -
Input #0, matroska,webm, from 'G:\Аниме\Онгоинги\!_36_Осень_2024\DreamCast\Я стану злодейкой, которая войдёт в историю\[DC] Rekishi ni Nokoru Akujo ni Naruzo - 11_Telegram_HEVC.mkv':
  Metadata:
    COMPATIBLE_BRANDS: isomiso2avc1mp41
    MAJOR_BRAND     : isom
    MINOR_VERSION   : 512
    ENCODER         : Lavf61.7.100
  Duration: 00:23:46.73, start: -0.021000, bitrate: 698 kb/s
  Stream #0:0: Video: hevc (Main 10), yuv420p10le(tv, bt709, progressive), 1920x1080 [SAR 1:1 DAR 16:9], 23.98 fps, 23.98 tbr, 1k tbn (default)
      Metadata:
        HANDLER_NAME    : VideoHandler
        VENDOR_ID       : [0][0][0][0]
        ENCODER         : Lavc61.19.100 libx265
        BPS             : 500914
        DURATION        : 00:23:46.549708333
        NUMBER_OF_FRAMES: 34203
        NUMBER_OF_BYTES : 89322304
        _STATISTICS_WRITING_APP: mkvpropedit v66.0.0 ('Josie') 64-bit
        _STATISTICS_WRITING_DATE_UTC: 2025-06-06 11:23:08
        _STATISTICS_TAGS: BPS DURATION NUMBER_OF_FRAMES NUMBER_OF_BYTES
  Stream #0:1: Audio: aac (LC), 48000 Hz, stereo, fltp (default)
      Metadata:
        HANDLER_NAME    : SoundHandler
        VENDOR_ID       : [0][0][0][0]
        ENCODER         : Lavc61.19.100 aac
        BPS             : 193722
        DURATION        : 00:23:46.730000000
        NUMBER_OF_FRAMES: 66879
        NUMBER_OF_BYTES : 34548651
        _STATISTICS_WRITING_APP: mkvpropedit v66.0.0 ('Josie') 64-bit
        _STATISTICS_WRITING_DATE_UTC: 2025-06-06 11:23:08
        _STATISTICS_TAGS: BPS DURATION NUMBER_OF_FRAMES NUMBER_OF_BYTES
Input #1, mov,mp4,m4a,3gp,3g2,mj2, from 'G:\Аниме\Онгоинги\!_36_Осень_2024\DreamCast\Я стану злодейкой, которая войдёт в историю\[DC] Rekishi ni Nokoru Akujo ni Naruzo - 11_Telegram.mp4':
  Metadata:
    major_brand     : isom
    minor_version   : 512
    compatible_brands: isomiso2avc1mp41
    encoder         : Lavf61.1.100
  Duration: 00:23:46.68, start: 0.000000, bitrate: 3039 kb/s
  Stream #1:0[0x1](und): Video: h264 (High) (avc1 / 0x31637661), yuv420p(tv, bt709, progressive), 1920x1080 [SAR 1:1 DAR 16:9], 2891 kb/s, 23.98 fps, 23.98 tbr, 24k tbn (default)
      Metadata:
        handler_name    : VideoHandler
        vendor_id       : [0][0][0][0]
        encoder         : Lavc61.3.100 h264_qsv
  Stream #1:1[0x2](und): Audio: aac (HE-AACv2) (mp4a / 0x6134706D), 48000 Hz, stereo, fltp, 144 kb/s (default)
      Metadata:
        handler_name    : SoundHandler
        vendor_id       : [0][0][0][0]
Stream mapping:
  Stream #0:0 (hevc) -> settb:default
  Stream #1:0 (h264) -> settb:default
  psnr:default -> Stream #0:0 (wrapped_avframe)
  Stream #0:1 -> #0:1 (aac (native) -> pcm_s16le (native))
Output #0, null, to 'pipe:':
  Metadata:
    COMPATIBLE_BRANDS: isomiso2avc1mp41
    MAJOR_BRAND     : isom
    MINOR_VERSION   : 512
    encoder         : Lavf61.7.100
  Stream #0:0: Video: wrapped_avframe, yuv420p10le(tv, bt709, progressive), 1920x1080 [SAR 1:1 DAR 16:9], q=2-31, 200 kb/s, 23.98 fps, 23.98 tbn
      Metadata:
        encoder         : Lavc61.19.100 wrapped_avframe
  Stream #0:1: Audio: pcm_s16le, 48000 Hz, stereo, s16, 1536 kb/s (default)
      Metadata:
        HANDLER_NAME    : SoundHandler
        VENDOR_ID       : [0][0][0][0]
        _STATISTICS_TAGS: BPS DURATION NUMBER_OF_FRAMES NUMBER_OF_BYTES
        BPS             : 193722
        DURATION        : 00:23:46.730000000
        NUMBER_OF_FRAMES: 66879
        NUMBER_OF_BYTES : 34548651
        _STATISTICS_WRITING_APP: mkvpropedit v66.0.0 ('Josie') 64-bit
        _STATISTICS_WRITING_DATE_UTC: 2025-06-06 11:23:08
        encoder         : Lavc61.19.100 pcm_s16le
frame=  172 fps=0.0 q=-0.0 size=N/A time=00:00:07.17 bitrate=N/A speed=13.8x    frame=  423 fps=411 q=-0.0 size=N/A time=00:00:17.64 bitrate=N/A speed=17.1x    frame=  688 fps=447 q=-0.0 size=N/A time=00:00:28.69 bitrate=N/A speed=18.6x    frame=  955 fps=464 q=-0.0 size=N/A time=00:00:39.83 bitrate=N/A speed=19.3x    frame= 1204 fps=469 q=-0.0 size=N/A time=00:00:50.21 bitrate=N/A speed=19.5x    frame= 1477 fps=477 q=-0.0 size=N/A time=00:01:01.60 bitrate=N/A speed=19.9x    frame= 1739 fps=482 q=-0.0 size=N/A time=00:01:12.53 bitrate=N/A speed=20.1x    frame= 2010 fps=488 q=-0.0 size=N/A time=00:01:23.83 bitrate=N/A speed=20.4x    frame= 2277 fps=490 q=-0.0 size=N/A time=00:01:34.96 bitrate=N/A speed=20.5x    frame= 2536 fps=492 q=-0.0 size=N/A time=00:01:45.77 bitrate=N/A speed=20.5x    frame= 2808 fps=496 q=-0.0 size=N/A time=00:01:57.11 bitrate=N/A speed=20.7x    frame= 3074 fps=497 q=-0.0 size=N/A time=00:02:08.21 bitrate=N/A speed=20.7x    frame= 3254 fps=486 q=-0.0 size=N/A time=00:02:15.71 bitrate=N/A speed=20.3x    frame= 3454 fps=478 q=-0.0 size=N/A time=00:02:24.06 bitrate=N/A speed=  20x    frame= 3664 fps=474 q=-0.0 size=N/A time=00:02:32.81 bitrate=N/A speed=19.8x    frame= 3881 fps=471 q=-0.0 size=N/A time=00:02:41.87 bitrate=N/A speed=19.6x    frame= 4099 fps=467 q=-0.0 size=N/A time=00:02:50.96 bitrate=N/A speed=19.5x    frame= 4285 fps=462 q=-0.0 size=N/A time=00:02:58.72 bitrate=N/A speed=19.3x    frame= 4509 fps=460 q=-0.0 size=N/A time=00:03:08.06 bitrate=N/A speed=19.2x    frame= 4720 fps=458 q=-0.0 size=N/A time=00:03:16.86 bitrate=N/A speed=19.1x    frame= 4903 fps=453 q=-0.0 size=N/A time=00:03:24.49 bitrate=N/A speed=18.9x    frame= 5142 fps=453 q=-0.0 size=N/A time=00:03:34.46 bitrate=N/A speed=18.9x    frame= 5390 fps=454 q=-0.0 size=N/A time=00:03:44.80 bitrate=N/A speed=18.9x    frame= 5635 fps=455 q=-0.0 size=N/A time=00:03:55.02 bitrate=N/A speed=  19x    frame= 5922 fps=460 q=-0.0 size=N/A time=00:04:06.99 bitrate=N/A speed=19.2x    frame= 6206 fps=463 q=-0.0 size=N/A time=00:04:18.84 bitrate=N/A speed=19.3x    frame= 6485 fps=466 q=-0.0 size=N/A time=00:04:30.47 bitrate=N/A speed=19.4x    frame= 6752 fps=468 q=-0.0 size=N/A time=00:04:41.61 bitrate=N/A speed=19.5x    frame= 7033 fps=470 q=-0.0 size=N/A time=00:04:53.33 bitrate=N/A speed=19.6x    frame= 7300 fps=472 q=-0.0 size=N/A time=00:05:04.47 bitrate=N/A speed=19.7x    frame= 7562 fps=473 q=-0.0 size=N/A time=00:05:15.39 bitrate=N/A speed=19.7x    frame= 7811 fps=473 q=-0.0 size=N/A time=00:05:25.78 bitrate=N/A speed=19.7x    frame= 8052 fps=473 q=-0.0 size=N/A time=00:05:35.83 bitrate=N/A speed=19.7x    frame= 8317 fps=475 q=-0.0 size=N/A time=00:05:46.88 bitrate=N/A speed=19.8x    frame= 8595 fps=476 q=-0.0 size=N/A time=00:05:58.48 bitrate=N/A speed=19.9x    frame= 8865 fps=478 q=-0.0 size=N/A time=00:06:09.74 bitrate=N/A speed=19.9x    frame= 9147 fps=479 q=-0.0 size=N/A time=00:06:21.50 bitrate=N/A speed=  20x    frame= 9425 fps=481 q=-0.0 size=N/A time=00:06:33.10 bitrate=N/A speed=20.1x    frame= 9702 fps=482 q=-0.0 size=N/A time=00:06:44.65 bitrate=N/A speed=20.1x    frame= 9988 fps=484 q=-0.0 size=N/A time=00:06:56.58 bitrate=N/A speed=20.2x    frame=10263 fps=486 q=-0.0 size=N/A time=00:07:08.05 bitrate=N/A speed=20.3x    frame=10545 fps=487 q=-0.0 size=N/A time=00:07:19.81 bitrate=N/A speed=20.3x    frame=10819 fps=488 q=-0.0 size=N/A time=00:07:31.24 bitrate=N/A speed=20.4x    frame=11082 fps=489 q=-0.0 size=N/A time=00:07:42.21 bitrate=N/A speed=20.4x    frame=11333 fps=489 q=-0.0 size=N/A time=00:07:52.68 bitrate=N/A speed=20.4x    frame=11581 fps=488 q=-0.0 size=N/A time=00:08:03.02 bitrate=N/A speed=20.4x    frame=11837 fps=489 q=-0.0 size=N/A time=00:08:13.70 bitrate=N/A speed=20.4x    frame=12085 fps=488 q=-0.0 size=N/A time=00:08:24.04 bitrate=N/A speed=20.4x    frame=12358 fps=489 q=-0.0 size=N/A time=00:08:35.43 bitrate=N/A speed=20.4x    frame=12626 fps=490 q=-0.0 size=N/A time=00:08:46.60 bitrate=N/A speed=20.4x    frame=12898 fps=491 q=-0.0 size=N/A time=00:08:57.95 bitrate=N/A speed=20.5x    frame=13166 fps=491 q=-0.0 size=N/A time=00:09:09.13 bitrate=N/A speed=20.5x    frame=13452 fps=492 q=-0.0 size=N/A time=00:09:21.10 bitrate=N/A speed=20.5x    frame=13734 fps=493 q=-0.0 size=N/A time=00:09:32.82 bitrate=N/A speed=20.6x    frame=14012 fps=494 q=-0.0 size=N/A time=00:09:44.41 bitrate=N/A speed=20.6x    frame=14274 fps=494 q=-0.0 size=N/A time=00:09:55.34 bitrate=N/A speed=20.6x    frame=14544 fps=495 q=-0.0 size=N/A time=00:10:06.60 bitrate=N/A speed=20.6x    frame=14811 fps=495 q=-0.0 size=N/A time=00:10:17.74 bitrate=N/A speed=20.6x    frame=15072 fps=495 q=-0.0 size=N/A time=00:10:28.62 bitrate=N/A speed=20.7x    frame=15312 fps=495 q=-0.0 size=N/A time=00:10:38.63 bitrate=N/A speed=20.6x    frame=15578 fps=495 q=-0.0 size=N/A time=00:10:49.73 bitrate=N/A speed=20.6x    frame=15809 fps=494 q=-0.0 size=N/A time=00:10:59.36 bitrate=N/A speed=20.6x    frame=16054 fps=494 q=-0.0 size=N/A time=00:11:09.58 bitrate=N/A speed=20.6x    frame=16302 fps=494 q=-0.0 size=N/A time=00:11:19.92 bitrate=N/A speed=20.6x    frame=16548 fps=494 q=-0.0 size=N/A time=00:11:30.18 bitrate=N/A speed=20.6x    frame=16819 fps=494 q=-0.0 size=N/A time=00:11:41.49 bitrate=N/A speed=20.6x    frame=17060 fps=494 q=-0.0 size=N/A time=00:11:51.54 bitrate=N/A speed=20.6x    frame=17326 fps=494 q=-0.0 size=N/A time=00:12:02.63 bitrate=N/A speed=20.6x    frame=17591 fps=494 q=-0.0 size=N/A time=00:12:13.69 bitrate=N/A speed=20.6x    frame=17851 fps=494 q=-0.0 size=N/A time=00:12:24.53 bitrate=N/A speed=20.6x    frame=18117 fps=495 q=-0.0 size=N/A time=00:12:35.62 bitrate=N/A speed=20.6x    frame=18401 fps=495 q=-0.0 size=N/A time=00:12:47.47 bitrate=N/A speed=20.7x    frame=18661 fps=496 q=-0.0 size=N/A time=00:12:58.31 bitrate=N/A speed=20.7x    frame=18955 fps=497 q=-0.0 size=N/A time=00:13:10.58 bitrate=N/A speed=20.7x    frame=19227 fps=497 q=-0.0 size=N/A time=00:13:21.92 bitrate=N/A speed=20.7x    frame=19507 fps=498 q=-0.0 size=N/A time=00:13:33.60 bitrate=N/A speed=20.8x    frame=19774 fps=498 q=-0.0 size=N/A time=00:13:44.74 bitrate=N/A speed=20.8x    frame=20049 fps=498 q=-0.0 size=N/A time=00:13:56.21 bitrate=N/A speed=20.8x    frame=20329 fps=499 q=-0.0 size=N/A time=00:14:07.88 bitrate=N/A speed=20.8x    frame=20610 fps=499 q=-0.0 size=N/A time=00:14:19.60 bitrate=N/A speed=20.8x    frame=20885 fps=500 q=-0.0 size=N/A time=00:14:31.07 bitrate=N/A speed=20.9x    frame=21172 fps=501 q=-0.0 size=N/A time=00:14:43.04 bitrate=N/A speed=20.9x    frame=21450 fps=501 q=-0.0 size=N/A time=00:14:54.64 bitrate=N/A speed=20.9x    frame=21728 fps=501 q=-0.0 size=N/A time=00:15:06.23 bitrate=N/A speed=20.9x    frame=21970 fps=501 q=-0.0 size=N/A time=00:15:16.33 bitrate=N/A speed=20.9x    frame=22182 fps=500 q=-0.0 size=N/A time=00:15:25.17 bitrate=N/A speed=20.9x    frame=22436 fps=500 q=-0.0 size=N/A time=00:15:35.76 bitrate=N/A speed=20.9x    frame=22681 fps=500 q=-0.0 size=N/A time=00:15:45.98 bitrate=N/A speed=20.8x    frame=22943 fps=500 q=-0.0 size=N/A time=00:15:56.91 bitrate=N/A speed=20.8x    frame=23216 fps=500 q=-0.0 size=N/A time=00:16:08.30 bitrate=N/A speed=20.9x    frame=23475 fps=500 q=-0.0 size=N/A time=00:16:19.10 bitrate=N/A speed=20.9x    frame=23728 fps=500 q=-0.0 size=N/A time=00:16:29.65 bitrate=N/A speed=20.9x    frame=23975 fps=500 q=-0.0 size=N/A time=00:16:39.95 bitrate=N/A speed=20.8x    frame=24238 fps=500 q=-0.0 size=N/A time=00:16:50.92 bitrate=N/A speed=20.9x    frame=24518 fps=500 q=-0.0 size=N/A time=00:17:02.60 bitrate=N/A speed=20.9x    frame=24780 fps=500 q=-0.0 size=N/A time=00:17:13.53 bitrate=N/A speed=20.9x    frame=25013 fps=500 q=-0.0 size=N/A time=00:17:23.25 bitrate=N/A speed=20.9x    frame=25284 fps=500 q=-0.0 size=N/A time=00:17:34.55 bitrate=N/A speed=20.9x    frame=25539 fps=500 q=-0.0 size=N/A time=00:17:45.18 bitrate=N/A speed=20.9x    frame=25823 fps=501 q=-0.0 size=N/A time=00:17:57.03 bitrate=N/A speed=20.9x    frame=26099 fps=501 q=-0.0 size=N/A time=00:18:08.54 bitrate=N/A speed=20.9x    frame=26376 fps=501 q=-0.0 size=N/A time=00:18:20.09 bitrate=N/A speed=20.9x    frame=26646 fps=502 q=-0.0 size=N/A time=00:18:31.36 bitrate=N/A speed=20.9x    frame=26892 fps=501 q=-0.0 size=N/A time=00:18:41.62 bitrate=N/A speed=20.9x    frame=27141 fps=501 q=-0.0 size=N/A time=00:18:52.00 bitrate=N/A speed=20.9x    frame=27371 fps=501 q=-0.0 size=N/A time=00:19:01.59 bitrate=N/A speed=20.9x    frame=27614 fps=500 q=-0.0 size=N/A time=00:19:11.73 bitrate=N/A speed=20.9x    frame=27895 fps=501 q=-0.0 size=N/A time=00:19:23.45 bitrate=N/A speed=20.9x    frame=28138 fps=501 q=-0.0 size=N/A time=00:19:33.58 bitrate=N/A speed=20.9x    frame=28413 fps=501 q=-0.0 size=N/A time=00:19:45.05 bitrate=N/A speed=20.9x    frame=28693 fps=501 q=-0.0 size=N/A time=00:19:56.73 bitrate=N/A speed=20.9x    frame=28962 fps=501 q=-0.0 size=N/A time=00:20:07.95 bitrate=N/A speed=20.9x    frame=29245 fps=502 q=-0.0 size=N/A time=00:20:19.76 bitrate=N/A speed=20.9x    frame=29515 fps=502 q=-0.0 size=N/A time=00:20:31.02 bitrate=N/A speed=20.9x    frame=29775 fps=502 q=-0.0 size=N/A time=00:20:41.86 bitrate=N/A speed=20.9x    frame=30067 fps=503 q=-0.0 size=N/A time=00:20:54.04 bitrate=N/A speed=  21x    frame=30346 fps=503 q=-0.0 size=N/A time=00:21:05.68 bitrate=N/A speed=  21x    frame=30638 fps=503 q=-0.0 size=N/A time=00:21:17.85 bitrate=N/A speed=  21x    frame=30905 fps=504 q=-0.0 size=N/A time=00:21:28.99 bitrate=N/A speed=  21x    frame=31124 fps=503 q=-0.0 size=N/A time=00:21:38.13 bitrate=N/A speed=  21x    frame=31340 fps=502 q=-0.0 size=N/A time=00:21:47.13 bitrate=N/A speed=20.9x    frame=31581 fps=502 q=-0.0 size=N/A time=00:21:57.19 bitrate=N/A speed=20.9x    frame=31834 fps=502 q=-0.0 size=N/A time=00:22:07.74 bitrate=N/A speed=20.9x    frame=32076 fps=502 q=-0.0 size=N/A time=00:22:17.83 bitrate=N/A speed=20.9x    frame=32329 fps=501 q=-0.0 size=N/A time=00:22:28.38 bitrate=N/A speed=20.9x    frame=32575 fps=501 q=-0.0 size=N/A time=00:22:38.64 bitrate=N/A speed=20.9x    frame=32801 fps=501 q=-0.0 size=N/A time=00:22:48.07 bitrate=N/A speed=20.9x    frame=33069 fps=501 q=-0.0 size=N/A time=00:22:59.25 bitrate=N/A speed=20.9x    frame=33323 fps=501 q=-0.0 size=N/A time=00:23:09.84 bitrate=N/A speed=20.9x    frame=33515 fps=500 q=-0.0 size=N/A time=00:23:17.85 bitrate=N/A speed=20.9x    frame=33731 fps=499 q=-0.0 size=N/A time=00:23:26.86 bitrate=N/A speed=20.8x    frame=33955 fps=499 q=-0.0 size=N/A time=00:23:36.20 bitrate=N/A speed=20.8x    frame=34195 fps=499 q=-0.0 size=N/A time=00:23:46.21 bitrate=N/A speed=20.8x    [Parsed_psnr_10 @ 000001836fe45dc0] PSNR y:49.954818 u:51.572815 v:51.175826 average:50.377240 min:41.045087 max:inf
[out#0/null @ 0000018363106540] video:14697KiB audio:267516KiB subtitle:0KiB other streams:0KiB global headers:0KiB muxing overhead: unknown
frame=34203 fps=499 q=-0.0 Lsize=N/A time=00:23:46.55 bitrate=N/A speed=20.8x    
